<!DOCTYPE svg PUBLIC "-//W3C//DTD SVG 20010904//EN" "http://www.w3.org/TR/2001/REC-SVG-20010904/DTD/svg10.dtd">
<svg version="1.0" xmlns="http://www.w3.org/2000/svg" width="1000px" height="1000px" viewBox="0 0 10000 10000" preserveAspectRatio="xMidYMid meet">
<g id="layer101" fill="#1f2035" stroke="none">
 <path d="M0 5000 l0 -5000 5000 0 5000 0 0 5000 0 5000 -5000 0 -5000 0 0 -5000z"/>
 </g>
<g id="layer102" fill="#343549" stroke="none">
 <path d="M5015 9350 c-4 -6 -15 -8 -25 -5 -18 6 -90 -47 -90 -65 0 -4 -18 -27 -40 -51 -22 -24 -40 -49 -40 -54 0 -6 -9 -16 -20 -23 -11 -7 -20 -18 -20 -25 0 -7 -9 -18 -20 -25 -11 -7 -20 -18 -20 -25 0 -7 -9 -18 -20 -25 -11 -7 -20 -18 -20 -25 0 -7 -9 -18 -20 -25 -11 -7 -20 -18 -20 -25 0 -7 -9 -18 -20 -25 -11 -7 -20 -18 -20 -25 0 -7 -9 -18 -20 -25 -11 -7 -20 -18 -20 -25 0 -7 -9 -18 -20 -25 -11 -7 -20 -18 -20 -25 0 -7 -9 -18 -20 -25 -11 -7 -20 -18 -20 -25 0 -7 -9 -18 -20 -25 -11 -7 -20 -18 -20 -25 0 -7 -9 -18 -20 -25 -11 -7 -20 -18 -20 -26 0 -8 -7 -16 -15 -20 -8 -3 -15 -9 -15 -14 0 -5 -18 -28 -40 -52 -22 -24 -40 -48 -40 -54 0 -6 -9 -17 -20 -24 -11 -7 -20 -18 -20 -25 0 -7 -9 -18 -20 -25 -11 -7 -20 -18 -20 -25 0 -7 -9 -18 -20 -25 -11 -7 -20 -18 -20 -25 0 -7 -9 -18 -20 -25 -11 -7 -20 -18 -20 -25 0 -7 -9 -18 -20 -25 -11 -7 -20 -18 -20 -25 0 -7 -9 -18 -20 -25 -11 -7 -20 -18 -20 -25 0 -7 -9 -18 -20 -25 -11 -7 -20 -18 -20 -25 0 -7 -9 -18 -20 -25 -11 -7 -20 -18 -20 -25 0 -7 -9 -18 -20 -25 -11 -7 -20 -18 -20 -25 0 -7 -9 -18 -20 -25 -11 -7 -20 -18 -20 -25 0 -7 -9 -18 -20 -25 -11 -7 -20 -18 -20 -25 0 -7 -9 -18 -20 -25 -11 -7 -20 -18 -20 -25 0 -7 -9 -18 -20 -25 -11 -7 -20 -18 -20 -25 0 -7 -9 -18 -20 -25 -11 -7 -20 -18 -20 -25 0 -7 -9 -18 -20 -25 -11 -7 -20 -18 -20 -25 0 -7 -9 -18 -20 -25 -11 -7 -20 -18 -20 -25 0 -7 -9 -18 -20 -25 -11 -7 -20 -18 -20 -25 0 -7 -9 -18 -20 -25 -11 -7 -20 -18 -20 -25 0 -7 -9 -18 -20 -25 -11 -7 -20 -18 -20 -25 0 -7 -9 -18 -20 -25 -11 -7 -20 -18 -20 -25 0 -7 -9 -18 -20 -25 -11 -7 -20 -18 -20 -25 0 -7 -9 -18 -20 -25 -11 -7 -20 -18 -20 -25 0 -7 -9 -18 -20 -25 -11 -7 -20 -18 -20 -25 0 -7 -9 -18 -20 -25 -11 -7 -20 -18 -20 -25 0 -7 -9 -18 -20 -25 -11 -7 -20 -18 -20 -25 0 -7 -9 -18 -20 -25 -11 -7 -20 -18 -20 -25 0 -7 -9 -18 -20 -25 -11 -7 -20 -18 -20 -25 0 -7 -9 -18 -20 -25 -11 -7 -20 -18 -20 -25 0 -7 -9 -18 -20 -25 -11 -7 -20 -18 -20 -25 0 -7 -9 -18 -20 -25 -11 -7 -20 -18 -20 -25 0 -7 -9 -18 -20 -25 -11 -7 -20 -18 -20 -25 0 -7 -9 -18 -20 -25 -11 -7 -20 -18 -20 -25 0 -7 -9 -18 -20 -25 -11 -7 -20 -18 -20 -25 0 -7 -9 -18 -20 -25 -11 -7 -20 -18 -20 -25 0 -7 -9 -18 -20 -25 -11 -7 -20 -18 -20 -25 0 -7 -9 -18 -20 -25 -11 -7 -20 -18 -20 -25 0 -7 -9 -18 -20 -25 -11 -7 -20 -18 -20 -25 0 -7 -9 -18 -20 -25 -11 -7 -20 -18 -20 -25 0 -7 -9 -18 -20 -25 -11 -7 -20 -18 -20 -25 0 -7 -9 -18 -20 -25 -11 -7 -20 -18 -20 -25 0 -7 -9 -18 -20 -25 -11 -7 -20 -18 -20 -25 0 -7 -9 -18 -20 -25 -11 -7 -20 -18 -20 -25 0 -7 -9 -18 -20 -25 -11 -7 -20 -18 -20 -25 0 -7 -9 -18 -20 -25 -11 -7 -20 -18 -20 -25 0 -7 -9 -18 -20 -25 -11 -7 -20 -18 -20 -25 0 -7 -9 -18 -20 -25 -11 -7 -20 -18 -20 -25 0 -7 -9 -18 -20 -25 -11 -7 -20 -18 -20 -25 0 -7 -9 -18 -20 -25 -11 -7 -20 -18 -20 -25 0 -7 -9 -18 -20 -25 -11 -7 -20 -18 -20 -25 0 -7 -9 -18 -20 -25 -11 -7 -20 -18 -20 -25 0 -7 -9 -18 -20 -25 -11 -7 -20 -18 -20 -25 0 -7 -9 -18 -20 -25 -11 -7 -20 -18 -20 -25 0 -7 -9 -18 -20 -25 -11 -7 -20 -17 -20 -23 0 -6 -11 -20 -25 -31 -14 -11 -25 -25 -25 -31 0 -7 -9 -18 -20 -25 -11 -7 -20 -18 -20 -26 0 -8 -7 -16 -15 -20 -8 -3 -15 -12 -15 -20 0 -7 -11 -21 -25 -30 -14 -9 -25 -22 -25 -29 0 -7 -9 -18 -20 -25 -11 -7 -20 -18 -20 -25 0 -7 -9 -18 -20 -25 -11 -7 -20 -18 -20 -25 0 -7 -9 -18 -20 -25 -11 -7 -20 -18 -20 -25 0 -7 -9 -18 -20 -25 -11 -7 -20 -18 -20 -25 0 -7 -9 -18 -20 -25 -11 -7 -20 -18 -20 -25 0 -7 -9 -18 -20 -25 -11 -7 -20 -18 -20 -25 0 -7 -9 -18 -20 -25 -11 -7 -20 -18 -20 -25 0 -7 -9 -18 -20 -25 -11 -7 -20 -18 -20 -25 0 -7 -9 -18 -20 -25 -11 -7 -20 -18 -20 -25 0 -7 -9 -18 -20 -25 -11 -7 -20 -19 -20 -27 0 -8 -4 -15 -10 -15 -13 0 -42 -58 -35 -70 3 -5 1 -11 -5 -15 -13 -8 -13 -92 0 -100 6 -4 8 -10 5 -15 -7 -11 31 -80 56 -102 10 -9 19 -21 19 -27 0 -6 9 -16 20 -23 11 -7 20 -18 20 -25 0 -7 9 -18 20 -25 11 -7 20 -18 20 -25 0 -7 9 -18 20 -25 11 -7 20 -18 20 -25 0 -7 9 -18 20 -25 11 -7 20 -18 20 -25 0 -7 9 -18 20 -25 11 -7 20 -18 20 -25 0 -7 11 -20 25 -29 14 -9 25 -22 25 -30 0 -7 9 -18 20 -24 11 -6 20 -17 20 -25 0 -8 9 -19 20 -25 11 -6 20 -17 20 -26 0 -8 7 -17 15 -20 8 -4 15 -12 15 -20 0 -8 9 -19 20 -26 11 -7 20 -18 20 -25 0 -7 11 -20 25 -29 14 -9 25 -22 25 -30 0 -7 9 -18 20 -24 11 -6 20 -17 20 -26 0 -8 7 -17 15 -20 8 -4 15 -11 15 -18 0 -6 15 -27 33 -46 l32 -35 440 2 c512 2 820 8 835 18 5 3 19 4 29 0 11 -3 22 -1 26 5 3 6 10 8 15 5 22 -14 220 80 220 105 0 6 7 10 15 10 8 0 15 7 15 15 0 8 9 19 20 25 11 6 20 17 20 25 0 8 9 19 20 25 11 6 20 17 20 25 0 8 9 19 20 25 11 6 20 17 20 25 0 8 9 19 20 25 11 6 20 17 20 25 0 8 9 19 20 25 11 6 20 17 20 25 0 8 9 19 20 25 11 6 20 17 20 25 0 8 9 19 20 25 11 6 20 17 20 25 0 8 9 19 20 25 11 6 20 17 20 25 0 8 9 19 20 25 11 6 20 17 20 25 0 8 9 19 20 25 11 6 20 16 20 23 0 7 9 18 20 25 11 7 20 18 20 26 0 8 11 21 25 30 14 9 25 23 25 30 0 8 7 16 15 20 8 3 15 12 15 20 0 9 9 20 20 26 11 6 20 17 20 25 0 8 9 19 20 25 11 6 20 17 20 25 0 8 9 19 20 25 11 6 20 17 20 25 0 8 9 19 20 25 11 6 20 14 20 19 0 4 20 30 45 57 25 27 45 54 45 60 0 7 7 14 15 18 8 3 15 12 15 20 0 9 9 20 20 26 11 6 20 17 20 25 0 8 4 15 9 15 11 0 111 124 111 137 0 4 9 14 20 21 11 7 20 19 20 27 0 8 4 15 10 15 5 0 21 17 34 38 23 34 24 41 14 84 -9 39 -17 50 -44 63 -18 8 -36 15 -41 14 -4 -1 -10 -1 -13 0 -3 1 -130 4 -284 6 -192 4 -282 2 -291 -5 -8 -7 -16 -7 -19 -2 -4 6 -21 7 -43 1 -48 -11 -466 -12 -479 -1 -5 5 -28 14 -51 22 -54 17 -65 56 -30 109 13 20 27 46 31 59 4 12 14 22 22 22 8 0 14 4 14 8 0 5 18 28 40 52 22 24 40 48 40 54 0 6 9 17 20 24 11 7 20 18 20 25 0 7 9 18 20 25 11 7 20 16 20 20 0 5 18 28 40 52 22 24 40 48 40 54 0 6 9 17 20 24 11 7 20 19 20 27 0 8 4 15 9 15 11 0 111 124 111 137 0 4 9 14 20 21 11 7 20 19 20 27 0 8 4 15 9 15 11 0 111 124 111 137 0 4 9 14 20 21 11 7 20 19 20 27 0 8 4 15 9 15 11 0 111 124 111 137 0 4 9 14 20 21 11 7 20 18 20 25 0 7 9 18 20 25 11 7 20 16 20 20 0 5 18 28 40 52 22 24 40 48 40 54 0 6 9 17 20 24 11 7 20 18 20 25 0 7 9 18 20 25 11 7 20 18 20 25 0 7 9 18 20 25 11 7 20 16 20 21 0 5 14 23 30 41 17 18 30 37 30 44 0 6 23 32 50 57 54 49 138 98 205 119 22 7 45 15 50 19 6 3 17 4 27 3 9 -2 19 1 22 6 3 5 26 7 51 4 28 -3 50 0 60 8 11 9 132 11 544 6 369 -4 532 -2 537 5 4 7 53 10 140 8 81 -2 133 1 133 6 -3 24 -19 55 -29 55 -5 0 -10 7 -10 15 0 8 -9 20 -20 27 -11 7 -20 18 -20 25 0 7 -9 18 -20 25 -11 7 -20 18 -20 25 0 7 -9 18 -20 25 -11 7 -20 18 -20 25 0 7 -9 18 -20 25 -11 7 -20 18 -20 25 0 7 -9 18 -20 25 -11 7 -20 18 -20 25 0 7 -9 18 -20 25 -11 7 -20 18 -20 25 0 7 -9 18 -20 25 -11 7 -20 18 -20 25 0 7 -9 18 -20 25 -11 7 -20 18 -20 25 0 7 -9 18 -20 25 -11 7 -20 18 -20 25 0 7 -9 18 -20 25 -11 7 -20 18 -20 25 0 7 -9 18 -20 25 -11 7 -20 18 -20 25 0 7 -9 18 -20 25 -11 7 -20 18 -20 25 0 7 -9 18 -20 25 -11 7 -20 18 -20 25 0 7 -9 18 -20 25 -11 7 -20 18 -20 25 0 7 -9 18 -20 25 -11 7 -20 18 -20 25 0 7 -9 18 -20 25 -11 7 -20 18 -20 25 0 7 -9 18 -20 25 -11 7 -20 18 -20 24 0 6 -18 30 -40 54 -22 24 -40 45 -40 48 0 10 -143 182 -151 182 -5 0 -9 5 -9 11 0 15 -299 389 -311 389 -5 0 -9 7 -9 15 0 8 -9 20 -20 27 -11 7 -20 18 -20 25 0 7 -9 18 -20 25 -11 7 -20 18 -20 25 0 6 -8 18 -18 25 -10 7 -21 21 -25 31 -3 9 -13 17 -20 17 -8 0 -20 7 -27 15 -7 9 -19 14 -26 11 -7 -3 -16 -1 -19 4 -8 13 -22 13 -30 0z"/>
 <path d="M7125 5939 c-66 -5 -217 -8 -335 -6 -118 1 -221 -2 -228 -6 -7 -5 -21 -6 -31 -2 -11 3 -22 1 -25 -4 -4 -6 -13 -8 -20 -5 -29 11 -226 -80 -226 -105 0 -5 -9 -11 -20 -14 -11 -3 -23 -13 -27 -24 -4 -10 -15 -24 -25 -31 -10 -7 -18 -19 -18 -27 0 -8 -9 -19 -20 -25 -11 -6 -20 -16 -20 -23 0 -7 -9 -18 -20 -25 -11 -7 -20 -18 -20 -25 0 -7 -9 -18 -20 -25 -11 -7 -20 -18 -20 -25 0 -7 -9 -18 -20 -25 -11 -7 -20 -19 -20 -27 0 -8 -9 -19 -20 -25 -11 -6 -20 -16 -20 -23 0 -7 -9 -18 -20 -25 -11 -7 -20 -18 -20 -25 0 -7 -9 -18 -20 -25 -11 -7 -20 -18 -20 -25 0 -7 -9 -18 -20 -25 -11 -7 -20 -19 -20 -27 0 -8 -9 -19 -20 -25 -11 -6 -20 -17 -20 -25 0 -8 -9 -19 -20 -25 -11 -6 -20 -16 -20 -23 0 -7 -9 -18 -20 -25 -11 -7 -20 -18 -20 -25 0 -7 -9 -18 -20 -25 -11 -7 -20 -19 -20 -27 0 -8 -9 -19 -20 -25 -11 -6 -20 -17 -20 -25 0 -8 -9 -19 -20 -25 -11 -6 -20 -16 -20 -23 0 -7 -9 -18 -20 -25 -11 -7 -20 -18 -20 -25 0 -7 -9 -18 -20 -25 -11 -7 -20 -18 -20 -25 0 -7 -9 -18 -20 -25 -11 -7 -20 -19 -20 -27 0 -8 -9 -19 -20 -25 -11 -6 -20 -16 -20 -23 0 -7 -9 -18 -20 -25 -11 -7 -20 -18 -20 -25 0 -7 -9 -18 -20 -25 -11 -7 -20 -18 -20 -25 0 -7 -9 -18 -20 -25 -11 -7 -20 -18 -20 -25 0 -7 -9 -18 -20 -25 -11 -7 -20 -18 -20 -25 0 -7 -9 -18 -20 -25 -11 -7 -20 -18 -20 -25 0 -7 -9 -18 -20 -25 -11 -7 -20 -18 -20 -25 0 -7 -9 -18 -20 -25 -11 -7 -20 -21 -20 -31 0 -11 -4 -23 -10 -26 -31 -19 19 -95 75 -111 17 -5 219 -8 450 -6 231 2 479 3 550 4 139 1 150 0 207 -26 41 -18 60 -57 39 -85 -6 -9 -16 -28 -22 -44 -6 -15 -20 -32 -30 -38 -10 -5 -19 -15 -19 -22 0 -7 -9 -18 -20 -25 -11 -7 -20 -18 -20 -25 0 -7 -9 -18 -20 -25 -11 -7 -20 -19 -20 -27 0 -8 -9 -19 -20 -25 -11 -6 -20 -17 -20 -25 0 -8 -9 -19 -20 -25 -11 -6 -20 -17 -20 -25 0 -8 -9 -19 -20 -25 -11 -6 -20 -17 -20 -25 0 -8 -9 -19 -20 -25 -11 -6 -20 -17 -20 -25 0 -8 -9 -19 -20 -25 -11 -6 -20 -17 -20 -25 0 -8 -9 -19 -20 -25 -11 -6 -20 -17 -20 -25 0 -8 -9 -19 -20 -25 -11 -6 -20 -17 -20 -25 0 -8 -9 -19 -20 -25 -11 -6 -20 -17 -20 -25 0 -8 -9 -19 -20 -25 -11 -6 -20 -17 -20 -25 0 -8 -9 -19 -20 -25 -11 -6 -20 -17 -20 -25 0 -8 -9 -19 -20 -25 -11 -6 -20 -17 -20 -25 0 -8 -9 -19 -20 -25 -11 -6 -20 -17 -20 -25 0 -8 -9 -19 -20 -25 -11 -6 -20 -17 -20 -25 0 -8 -9 -19 -20 -25 -11 -6 -20 -17 -20 -25 0 -8 -9 -19 -20 -25 -11 -6 -20 -17 -20 -25 0 -8 -9 -19 -20 -25 -11 -6 -20 -17 -20 -24 0 -8 -11 -21 -25 -30 -14 -9 -25 -23 -25 -30 0 -8 -7 -16 -15 -20 -8 -3 -15 -12 -15 -20 0 -9 -9 -20 -20 -26 -11 -6 -20 -17 -20 -25 0 -8 -9 -19 -20 -25 -11 -6 -20 -17 -20 -24 0 -8 -11 -21 -25 -30 -14 -9 -25 -23 -25 -30 0 -8 -7 -16 -15 -20 -8 -3 -15 -12 -15 -20 0 -9 -9 -20 -20 -26 -11 -6 -20 -16 -20 -23 0 -7 -9 -18 -20 -25 -11 -7 -20 -19 -20 -27 0 -8 -9 -19 -20 -25 -11 -6 -20 -16 -20 -23 0 -26 -88 -96 -171 -136 -47 -23 -93 -41 -102 -41 -9 0 -18 -4 -22 -10 -3 -5 -12 -7 -19 -4 -8 3 -17 1 -21 -5 -3 -6 -17 -8 -31 -5 -14 4 -31 1 -40 -7 -12 -10 -101 -11 -427 -6 -227 4 -429 3 -450 -2 -20 -5 -39 -5 -42 0 -3 4 -18 4 -33 -2 -16 -6 -114 -9 -242 -8 -243 2 -250 0 -186 -65 20 -19 36 -40 36 -46 0 -6 7 -13 15 -16 8 -4 15 -12 15 -20 0 -8 9 -19 20 -26 11 -7 20 -18 20 -25 0 -7 9 -18 20 -25 11 -7 20 -18 20 -25 0 -7 9 -18 20 -25 11 -7 20 -18 20 -25 0 -7 9 -18 20 -25 11 -7 20 -18 20 -25 0 -7 9 -18 20 -25 11 -7 20 -18 20 -25 0 -7 9 -18 20 -25 11 -7 20 -18 20 -25 0 -7 9 -18 20 -25 11 -7 20 -18 20 -25 0 -7 9 -18 20 -25 11 -7 20 -18 20 -25 0 -7 9 -18 20 -25 11 -7 20 -18 20 -25 0 -7 9 -18 20 -25 11 -7 20 -18 20 -25 0 -7 9 -18 20 -25 11 -7 20 -18 20 -25 0 -7 9 -18 20 -25 11 -7 20 -18 20 -25 0 -7 9 -18 20 -25 11 -7 20 -18 20 -25 0 -7 9 -18 20 -25 11 -7 20 -18 20 -25 0 -7 9 -18 20 -25 11 -7 20 -18 20 -25 0 -7 9 -18 20 -25 11 -7 20 -18 20 -25 0 -7 9 -18 20 -25 11 -7 20 -18 20 -25 0 -7 9 -18 20 -25 11 -7 20 -18 20 -25 0 -7 9 -18 20 -25 11 -7 20 -18 20 -25 0 -7 9 -18 20 -25 11 -7 20 -18 20 -25 0 -7 9 -18 20 -25 11 -7 20 -18 20 -25 0 -7 9 -18 20 -25 11 -7 20 -18 20 -25 0 -7 9 -18 20 -25 11 -7 20 -18 20 -25 0 -7 9 -18 20 -25 11 -7 20 -18 20 -25 0 -7 9 -18 20 -25 11 -7 20 -18 20 -25 0 -7 9 -18 20 -25 11 -7 20 -18 20 -25 0 -7 9 -18 20 -25 11 -7 20 -18 20 -25 0 -7 9 -18 20 -25 11 -7 20 -18 20 -25 0 -7 9 -18 20 -25 11 -7 20 -18 20 -25 0 -7 9 -18 20 -25 11 -7 20 -18 20 -25 0 -7 9 -18 20 -25 11 -7 20 -18 20 -25 0 -7 9 -18 20 -25 11 -7 20 -18 20 -23 0 -6 20 -28 45 -49 46 -38 107 -57 119 -38 4 6 13 9 21 6 8 -4 18 1 21 10 3 9 12 16 20 16 8 0 14 7 14 15 0 8 9 19 20 25 11 6 20 17 20 25 0 8 9 19 20 25 11 6 20 17 20 25 0 8 9 19 20 25 11 6 20 17 20 25 0 8 9 19 20 25 11 6 20 17 20 25 0 8 9 19 20 25 11 6 20 17 20 25 0 8 9 19 20 25 11 6 20 17 20 25 0 8 9 19 20 25 11 6 20 17 20 25 0 8 9 19 20 25 11 6 20 16 20 23 0 7 9 18 20 25 11 7 20 18 20 25 0 7 9 18 20 25 11 7 20 18 20 25 0 7 9 18 20 25 11 7 20 18 20 25 0 7 9 18 20 25 11 7 20 18 20 25 0 7 9 18 20 25 11 7 20 18 20 25 0 7 9 18 20 25 11 7 20 18 20 25 0 7 9 18 20 25 11 7 20 18 20 25 0 7 9 18 20 25 11 7 20 18 20 25 0 7 9 18 20 25 11 7 20 18 20 25 0 7 9 18 20 25 11 7 20 19 20 27 0 8 9 19 20 25 11 6 20 16 20 23 0 7 9 18 20 25 11 7 20 18 20 25 0 7 9 18 20 25 11 7 20 18 20 25 0 7 9 18 20 25 11 7 20 19 20 27 0 8 9 19 20 25 11 6 20 17 20 25 0 8 9 19 20 25 11 6 20 16 20 23 0 7 9 18 20 25 11 7 20 18 20 25 0 7 9 18 20 25 11 7 20 19 20 27 0 8 9 19 20 25 11 6 20 17 20 25 0 8 9 19 20 25 11 6 20 17 20 25 0 8 9 19 20 25 11 6 20 16 20 23 0 7 9 18 20 25 11 7 20 19 20 27 0 8 9 19 20 25 11 6 20 17 20 25 0 8 9 19 20 25 11 6 20 17 20 25 0 8 9 19 20 25 11 6 20 16 20 23 0 7 9 18 20 25 11 7 20 19 20 27 0 8 9 19 20 25 11 6 20 17 20 25 0 8 9 19 20 25 11 6 20 17 20 25 0 8 9 19 20 25 11 6 20 16 20 23 0 7 9 18 20 25 11 7 20 18 20 25 0 7 9 18 20 25 11 7 20 19 20 27 0 8 9 19 20 25 11 6 20 16 20 23 0 7 9 18 20 25 11 7 20 18 20 25 0 7 9 18 20 25 11 7 20 18 20 25 0 7 9 18 20 25 11 7 20 18 20 25 0 7 9 18 20 25 11 7 20 18 20 25 0 7 9 18 20 25 11 7 20 18 20 25 0 7 9 18 20 25 11 7 20 18 20 25 0 7 9 18 20 25 11 7 20 18 20 25 0 7 9 18 20 25 11 7 20 18 20 25 0 7 9 18 20 25 11 7 20 18 20 25 0 7 9 18 20 25 11 7 20 18 20 25 0 7 9 18 20 25 11 7 20 18 20 25 0 7 9 18 20 25 11 7 20 18 20 25 0 7 9 18 20 25 11 7 20 18 20 25 0 7 9 18 20 25 11 7 20 18 20 25 0 7 9 18 20 25 11 7 20 18 20 25 0 7 9 18 20 25 11 7 20 18 20 25 0 7 9 18 20 25 11 7 20 18 20 25 0 7 9 18 20 25 11 7 20 18 20 25 0 7 9 18 20 25 11 7 20 18 20 25 0 7 9 18 20 25 11 7 20 18 20 25 0 7 9 18 20 25 11 7 20 18 20 25 0 7 9 18 20 25 11 7 20 18 20 25 0 7 9 18 20 25 11 7 20 18 20 25 0 7 9 18 20 25 11 7 20 19 20 27 0 8 9 19 20 25 11 6 20 16 20 23 0 7 9 18 20 25 11 7 20 18 20 25 0 7 9 18 20 25 11 7 20 18 20 25 0 7 9 18 20 25 11 7 20 19 20 27 0 8 9 19 20 25 11 6 20 16 20 23 0 7 9 18 20 25 11 7 20 18 20 25 0 7 9 18 20 25 11 7 20 18 20 25 0 7 9 18 20 25 11 7 20 18 20 25 0 7 9 18 20 25 11 7 20 18 20 25 0 7 9 18 20 25 11 7 20 18 20 25 0 7 9 18 20 25 11 7 20 18 20 25 0 7 9 18 20 25 11 7 20 18 20 25 0 7 9 18 20 25 11 7 20 18 20 25 0 7 9 18 20 25 11 7 20 18 20 25 0 7 9 18 20 25 11 7 20 18 20 25 0 7 9 18 20 25 11 7 20 18 20 25 0 7 9 18 20 25 11 7 20 18 20 25 0 7 9 18 20 25 11 7 20 19 20 27 0 8 4 15 10 15 5 0 21 17 35 38 30 45 41 167 20 219 -13 31 -398 521 -436 555 -11 9 -19 21 -19 27 0 6 -9 16 -20 23 -11 7 -20 18 -20 25 0 7 -9 18 -20 25 -11 7 -20 18 -20 25 0 7 -9 18 -20 25 -11 7 -20 18 -20 25 0 7 -9 18 -20 25 -11 7 -20 18 -20 25 0 6 -12 21 -26 32 -26 20 -37 21 -308 19 -154 0 -335 -5 -401 -9z"/>
 </g>
<g id="layer103" fill="#413f54" stroke="none">
 <path d="M4998 9343 c-14 -2 -32 -11 -38 -19 -7 -8 -19 -14 -26 -14 -8 0 -14 -7 -14 -15 0 -8 -11 -22 -25 -31 -14 -9 -25 -21 -25 -28 0 -6 -9 -17 -20 -24 -11 -7 -20 -19 -20 -27 0 -8 -9 -19 -20 -25 -11 -6 -20 -17 -20 -25 0 -8 -9 -19 -20 -25 -11 -6 -20 -17 -20 -25 0 -8 -9 -19 -20 -25 -11 -6 -20 -17 -20 -25 0 -8 -9 -19 -20 -25 -11 -6 -20 -17 -20 -25 0 -8 -9 -19 -20 -25 -11 -6 -20 -17 -20 -25 0 -8 -9 -19 -20 -25 -11 -6 -20 -17 -20 -25 0 -8 -9 -19 -20 -25 -11 -6 -20 -17 -20 -25 0 -8 -9 -19 -20 -25 -11 -6 -20 -17 -20 -25 0 -8 -9 -19 -20 -25 -11 -6 -20 -17 -20 -25 0 -8 -9 -19 -20 -25 -11 -6 -20 -17 -20 -24 0 -7 -16 -29 -35 -49 -19 -20 -35 -41 -35 -46 0 -6 -9 -15 -20 -21 -11 -6 -20 -17 -20 -25 0 -8 -9 -19 -20 -25 -11 -6 -20 -17 -20 -25 0 -8 -9 -19 -20 -25 -11 -6 -20 -17 -20 -25 0 -8 -9 -19 -20 -25 -11 -6 -20 -17 -20 -25 0 -8 -9 -19 -20 -25 -11 -6 -20 -17 -20 -25 0 -8 -9 -19 -20 -25 -11 -6 -20 -17 -20 -25 0 -8 -9 -19 -20 -25 -11 -6 -20 -17 -20 -25 0 -8 -9 -19 -20 -25 -11 -6 -20 -17 -20 -25 0 -8 -9 -19 -20 -25 -11 -6 -20 -17 -20 -25 0 -8 -9 -19 -20 -25 -11 -6 -20 -17 -20 -25 0 -8 -9 -19 -20 -25 -11 -6 -20 -17 -20 -25 0 -8 -9 -19 -20 -25 -11 -6 -20 -17 -20 -25 0 -8 -9 -19 -20 -25 -11 -6 -20 -17 -20 -25 0 -8 -9 -19 -20 -25 -11 -6 -20 -17 -20 -25 0 -8 -9 -19 -20 -25 -11 -6 -20 -17 -20 -25 0 -8 -9 -19 -20 -25 -11 -6 -20 -17 -20 -25 0 -8 -9 -19 -20 -25 -11 -6 -20 -17 -20 -25 0 -8 -9 -19 -20 -25 -11 -6 -20 -17 -20 -25 0 -8 -9 -19 -20 -25 -11 -6 -20 -17 -20 -25 0 -8 -9 -19 -20 -25 -11 -6 -20 -17 -20 -25 0 -8 -9 -19 -20 -25 -11 -6 -20 -17 -20 -25 0 -8 -9 -19 -20 -25 -11 -6 -20 -17 -20 -25 0 -8 -9 -19 -20 -25 -11 -6 -20 -17 -20 -24 0 -8 -18 -32 -40 -55 -22 -22 -40 -45 -40 -51 0 -5 -9 -14 -20 -20 -11 -6 -20 -16 -20 -22 0 -13 -663 -845 -696 -873 -13 -12 -24 -26 -24 -33 0 -6 -9 -16 -20 -22 -11 -6 -20 -15 -20 -21 0 -15 -89 -126 -106 -133 -8 -3 -14 -12 -14 -19 0 -8 -18 -33 -40 -56 -22 -22 -40 -45 -40 -50 0 -5 -18 -27 -40 -50 -22 -22 -40 -45 -40 -51 0 -5 -9 -14 -20 -20 -11 -6 -20 -17 -20 -25 0 -8 -9 -19 -20 -25 -11 -6 -20 -17 -20 -25 0 -8 -9 -19 -20 -25 -11 -6 -20 -15 -20 -21 0 -5 -128 -168 -284 -363 -248 -308 -286 -360 -300 -410 -15 -51 -15 -61 -1 -102 8 -24 15 -51 15 -58 0 -8 8 -20 19 -27 23 -17 171 -203 171 -215 0 -4 11 -17 24 -29 29 -25 386 -471 386 -483 0 -4 13 -18 29 -29 26 -20 42 -22 257 -24 309 -4 1010 10 1059 21 21 5 42 7 47 4 4 -3 41 11 82 31 41 19 77 35 81 35 18 0 95 87 277 315 110 138 209 256 219 264 11 7 19 18 19 22 0 13 248 322 266 332 8 4 14 14 14 22 0 8 9 19 20 25 11 6 20 15 20 21 0 13 87 121 106 132 8 4 14 14 14 22 0 8 9 19 20 25 11 6 20 17 20 25 0 8 9 19 20 25 11 6 20 17 20 25 0 8 9 19 20 25 11 6 20 17 20 26 0 8 6 17 14 20 19 7 56 78 56 108 0 36 -34 71 -81 85 -49 15 -185 16 -734 6 -356 -7 -372 -7 -429 13 -79 27 -101 76 -57 127 9 11 23 33 31 49 8 16 27 38 43 49 15 12 27 27 27 34 0 7 9 17 20 23 11 6 20 17 20 25 0 8 9 19 20 25 11 6 20 17 20 25 0 8 9 19 20 25 11 6 20 17 20 25 0 8 9 19 20 25 11 6 20 17 20 25 0 8 9 19 20 25 11 6 20 17 20 25 0 8 9 19 20 25 11 6 20 17 20 25 0 8 9 19 20 25 11 6 20 17 20 25 0 8 9 19 20 25 11 6 20 17 20 25 0 8 9 19 20 25 11 6 20 17 20 25 0 8 9 19 20 25 11 6 20 17 20 25 0 8 9 19 20 25 11 6 20 17 20 25 0 8 9 19 20 25 11 6 20 17 20 25 0 8 9 19 20 25 11 6 20 17 20 25 0 8 9 19 20 25 11 6 20 17 20 25 0 8 9 19 20 25 11 6 20 17 20 25 0 8 9 19 20 25 11 6 20 17 20 25 0 8 9 19 20 25 11 6 20 17 20 25 0 8 9 19 20 25 11 6 20 17 20 25 0 8 9 19 20 25 11 6 20 17 20 25 0 8 9 19 20 25 11 6 20 17 20 25 0 8 9 19 20 25 11 6 20 17 20 25 0 8 9 19 20 25 11 6 20 17 20 25 0 8 9 19 20 25 11 6 20 17 20 25 0 8 9 19 20 25 11 6 20 17 20 25 0 8 9 19 20 25 11 6 20 17 20 24 0 8 7 16 15 20 8 3 15 11 15 18 0 6 24 35 54 63 59 56 201 134 251 137 17 1 35 5 40 9 14 10 18 11 480 14 452 3 987 13 992 19 2 1 -8 20 -22 40 -14 20 -25 41 -25 46 0 5 -9 14 -20 20 -11 6 -20 17 -20 25 0 8 -9 19 -20 25 -11 6 -20 17 -20 25 0 8 -9 19 -20 25 -11 6 -20 17 -20 25 0 8 -9 19 -20 25 -11 6 -20 17 -20 25 0 8 -9 19 -20 25 -11 6 -20 17 -20 25 0 8 -9 19 -20 25 -11 6 -20 17 -20 25 0 8 -9 19 -20 25 -11 6 -20 17 -20 25 0 8 -9 19 -20 25 -11 6 -20 17 -20 25 0 8 -9 19 -20 25 -11 6 -20 17 -20 25 0 8 -9 19 -20 25 -11 6 -20 17 -20 25 0 8 -9 19 -20 25 -11 6 -20 17 -20 25 0 8 -9 19 -20 25 -11 6 -20 17 -20 25 0 8 -9 19 -20 25 -11 6 -20 17 -20 25 0 8 -9 19 -20 25 -11 6 -20 17 -20 25 0 8 -9 19 -20 25 -11 6 -20 17 -20 25 0 8 -9 19 -20 25 -11 6 -20 17 -20 25 0 8 -9 19 -20 25 -11 6 -20 17 -20 25 0 8 -9 19 -20 25 -11 6 -20 17 -20 25 0 8 -9 19 -20 25 -11 6 -20 17 -20 25 0 8 -9 19 -20 25 -11 6 -20 17 -20 25 0 8 -9 19 -20 25 -11 6 -20 17 -20 25 0 8 -9 19 -20 25 -11 6 -20 17 -20 25 0 8 -9 19 -20 25 -11 6 -20 17 -20 25 0 8 -9 19 -20 25 -11 6 -20 17 -20 25 0 8 -9 19 -20 25 -11 6 -20 17 -20 25 0 8 -9 19 -20 25 -11 6 -20 17 -20 25 0 8 -9 19 -20 25 -11 6 -20 17 -20 25 0 8 -9 19 -20 25 -11 6 -20 17 -20 25 0 8 -9 19 -20 25 -11 6 -20 17 -20 25 0 8 -9 19 -20 25 -11 6 -20 17 -20 25 0 8 -9 19 -20 25 -11 6 -20 17 -20 25 0 8 -9 19 -20 25 -11 6 -20 17 -20 25 0 8 -9 19 -20 25 -11 6 -20 16 -20 22 0 6 -21 29 -47 52 -46 40 -68 47 -125 39z"/>
 <path d="M7629 5946 c-2 -2 -242 -7 -533 -10 -291 -4 -532 -9 -536 -11 -4 -2 -24 -5 -46 -7 -21 -1 -50 -8 -64 -15 -14 -7 -32 -13 -40 -13 -55 0 -190 -105 -253 -197 -16 -23 -35 -44 -43 -47 -8 -3 -14 -12 -14 -20 0 -9 -9 -20 -20 -26 -11 -6 -20 -17 -20 -25 0 -8 -9 -19 -20 -25 -11 -6 -20 -16 -20 -23 0 -7 -18 -32 -40 -55 -22 -22 -40 -46 -40 -51 0 -6 -9 -15 -20 -21 -11 -6 -20 -17 -20 -25 0 -8 -9 -19 -20 -25 -11 -6 -20 -15 -20 -21 0 -13 -87 -121 -106 -132 -8 -4 -14 -14 -14 -22 0 -8 -9 -19 -20 -25 -11 -6 -20 -15 -20 -21 0 -13 -87 -121 -106 -132 -8 -4 -14 -14 -14 -22 0 -8 -9 -19 -20 -25 -11 -6 -20 -17 -20 -25 0 -8 -9 -19 -20 -25 -11 -6 -20 -16 -20 -23 0 -7 -18 -32 -40 -55 -22 -22 -40 -46 -40 -51 0 -6 -9 -15 -20 -21 -11 -6 -20 -17 -20 -25 0 -8 -9 -19 -20 -25 -11 -6 -20 -17 -20 -25 0 -8 -9 -19 -20 -25 -11 -6 -20 -17 -20 -25 0 -8 -9 -19 -20 -25 -11 -6 -20 -17 -20 -25 0 -8 -9 -19 -20 -25 -11 -6 -20 -15 -20 -21 0 -6 -12 -26 -26 -44 -14 -19 -28 -52 -31 -73 -5 -36 -3 -40 33 -63 37 -22 44 -25 69 -28 39 -4 555 -3 805 2 316 7 313 7 390 -32 23 -12 36 -59 22 -79 -6 -9 -18 -30 -26 -47 -8 -16 -29 -46 -48 -67 -18 -20 -41 -47 -51 -60 -51 -68 -952 -1195 -962 -1203 -6 -5 -18 -21 -27 -36 -24 -38 -118 -139 -131 -139 -5 0 -25 -11 -43 -25 -18 -14 -37 -25 -43 -25 -6 0 -25 -9 -43 -19 -17 -11 -35 -18 -40 -15 -5 3 -14 1 -21 -4 -29 -23 -159 -33 -450 -32 -428 2 -1060 -11 -1071 -21 -9 -8 -4 -15 376 -491 131 -164 238 -302 238 -308 0 -5 9 -14 20 -20 11 -6 20 -17 20 -25 0 -8 9 -19 20 -25 11 -6 20 -17 20 -25 0 -8 9 -19 20 -25 11 -6 20 -17 20 -25 0 -8 9 -19 20 -25 11 -6 20 -17 20 -25 0 -8 9 -19 20 -25 11 -6 20 -17 20 -25 0 -8 9 -19 20 -25 11 -6 20 -17 20 -25 0 -8 9 -19 20 -25 11 -6 20 -17 20 -25 0 -8 9 -19 20 -25 11 -6 20 -17 20 -25 0 -8 9 -19 20 -25 11 -6 20 -17 20 -25 0 -8 9 -19 20 -25 11 -6 20 -17 20 -25 0 -8 9 -19 20 -25 11 -6 20 -17 20 -25 0 -8 9 -19 20 -25 11 -6 20 -17 20 -25 0 -8 9 -19 20 -25 11 -6 20 -17 20 -25 0 -8 9 -19 20 -25 11 -6 20 -17 20 -25 0 -8 9 -19 20 -25 11 -6 20 -17 20 -25 0 -8 9 -19 20 -25 11 -6 20 -17 20 -25 0 -8 6 -18 14 -22 17 -10 106 -119 106 -130 0 -4 18 -22 39 -40 33 -28 45 -31 89 -29 66 3 66 3 265 250 88 109 167 206 176 216 9 10 25 29 36 44 11 14 29 37 40 50 11 13 29 36 40 50 11 14 29 37 40 50 11 13 29 36 40 50 11 14 29 37 40 50 11 13 29 36 40 50 20 26 55 69 78 96 7 8 20 26 29 40 9 14 29 39 45 57 29 33 56 65 86 105 35 46 112 143 127 159 8 9 23 27 33 40 24 33 148 190 165 209 7 8 43 53 80 100 36 46 72 91 80 100 7 8 43 53 80 100 36 46 74 93 85 105 30 34 42 49 59 75 9 14 29 39 45 57 15 17 37 43 48 57 11 14 29 37 40 50 11 13 29 36 40 50 11 14 29 37 40 50 11 13 29 36 40 50 11 14 29 37 40 50 25 31 54 67 80 100 11 14 29 37 40 50 11 13 29 36 40 50 11 14 29 37 40 50 11 13 29 36 40 50 11 14 29 37 40 50 11 13 29 36 40 51 11 14 28 34 38 43 9 9 17 22 17 29 0 7 9 17 20 23 11 6 20 16 20 22 0 6 10 21 23 33 12 12 31 34 42 49 11 15 28 35 38 44 9 9 17 22 17 29 0 7 9 17 20 23 11 6 20 17 20 25 0 8 9 19 20 25 11 6 20 16 20 22 0 6 10 21 23 34 46 48 57 61 57 70 0 6 18 29 40 52 22 22 40 46 40 51 0 6 9 15 20 21 11 6 20 17 20 25 0 8 9 19 20 25 11 6 20 16 20 23 0 7 18 32 40 55 22 22 40 46 40 51 0 6 9 15 20 21 11 6 20 16 20 22 0 6 10 21 23 33 12 12 31 34 42 49 11 15 28 35 38 44 9 9 17 21 17 26 0 5 10 19 23 31 12 12 31 34 42 49 11 15 28 35 38 44 9 9 17 21 17 26 0 5 10 19 23 31 21 21 32 35 82 99 11 14 29 37 40 50 11 13 29 36 40 50 11 14 34 42 52 62 22 26 34 54 41 93 12 70 1 160 -21 176 -10 7 -17 17 -17 23 0 6 -9 16 -20 22 -11 6 -20 17 -20 25 0 8 -9 19 -20 25 -11 6 -20 17 -20 25 0 8 -9 19 -20 25 -11 6 -20 17 -20 25 0 8 -9 19 -20 25 -11 6 -20 17 -20 25 0 8 -9 19 -20 25 -11 6 -20 17 -20 25 0 8 -9 19 -20 25 -11 6 -20 17 -20 25 0 8 -9 19 -20 25 -11 6 -20 17 -20 25 0 8 -9 19 -20 25 -11 6 -20 17 -20 25 0 8 -9 19 -20 25 -11 6 -20 17 -20 25 0 8 -6 18 -14 22 -8 4 -63 69 -122 143 -60 74 -117 143 -129 152 -15 13 -39 17 -101 18 -44 0 -83 -2 -85 -4z"/>
 </g>
<g id="layer104" fill="#404154" stroke="none">
 <path d="M4998 9343 c-14 -2 -32 -11 -38 -19 -7 -8 -19 -14 -26 -14 -8 0 -14 -6 -14 -13 0 -8 -20 -34 -45 -59 -25 -25 -45 -51 -45 -57 0 -6 -9 -15 -20 -21 -11 -6 -20 -17 -20 -25 0 -8 -9 -19 -20 -25 -11 -6 -20 -17 -20 -25 0 -8 -9 -19 -20 -25 -11 -6 -20 -17 -20 -25 0 -8 -9 -19 -20 -25 -11 -6 -20 -17 -20 -25 0 -8 -9 -19 -20 -25 -11 -6 -20 -17 -20 -25 0 -8 -9 -19 -20 -25 -11 -6 -20 -15 -20 -21 0 -13 -127 -171 -146 -182 -8 -4 -14 -14 -14 -21 0 -7 -16 -29 -35 -49 -19 -20 -35 -41 -35 -46 0 -6 -9 -15 -20 -21 -11 -6 -20 -17 -20 -25 0 -8 -9 -19 -20 -25 -11 -6 -20 -17 -20 -24 0 -8 -18 -32 -40 -55 -22 -22 -40 -45 -40 -51 0 -5 -9 -14 -20 -20 -11 -6 -20 -15 -20 -21 0 -15 -89 -126 -106 -133 -8 -3 -14 -12 -14 -20 0 -9 -9 -20 -20 -26 -11 -6 -20 -17 -20 -25 0 -8 -9 -19 -20 -25 -11 -6 -20 -17 -20 -24 0 -8 -18 -32 -40 -55 -22 -22 -40 -45 -40 -50 0 -5 -18 -27 -40 -50 -22 -22 -40 -45 -40 -50 0 -5 -18 -27 -40 -50 -22 -22 -40 -45 -40 -51 0 -5 -9 -14 -20 -20 -11 -6 -20 -17 -20 -25 0 -8 -9 -19 -20 -25 -11 -6 -20 -15 -20 -21 0 -15 -129 -177 -146 -183 -8 -3 -14 -10 -14 -17 0 -15 -88 -126 -106 -133 -8 -3 -14 -12 -14 -20 0 -9 -9 -20 -20 -26 -11 -6 -20 -16 -20 -22 0 -13 -663 -845 -696 -873 -13 -12 -24 -26 -24 -33 0 -6 -9 -16 -20 -22 -11 -6 -20 -15 -20 -21 0 -15 -89 -126 -106 -133 -8 -3 -14 -12 -14 -19 0 -8 -18 -33 -40 -56 -22 -22 -40 -44 -40 -47 0 -11 -132 -173 -146 -178 -8 -3 -14 -12 -14 -20 0 -9 -9 -20 -20 -26 -11 -6 -20 -15 -20 -21 0 -5 -128 -168 -284 -363 -326 -405 -329 -410 -298 -523 10 -35 25 -68 33 -75 23 -18 169 -203 169 -214 0 -4 11 -17 24 -29 29 -25 386 -471 386 -483 0 -4 13 -18 29 -29 27 -20 42 -22 257 -24 313 -4 1011 10 1059 21 21 5 42 7 47 4 4 -3 41 11 82 31 41 19 77 35 81 35 18 0 95 87 277 315 110 138 209 256 219 264 11 7 19 18 19 22 0 13 248 322 266 332 8 4 14 14 14 22 0 8 9 19 20 25 11 6 20 15 20 21 0 13 87 121 106 132 8 4 14 14 14 22 0 8 9 19 20 25 11 6 20 17 20 25 0 8 9 19 20 25 11 6 20 17 20 25 0 8 9 19 20 25 11 6 20 17 20 26 0 8 6 17 14 20 19 7 56 78 56 108 0 36 -34 71 -81 85 -49 15 -185 16 -734 6 -356 -7 -372 -7 -429 13 -79 27 -101 76 -57 127 9 11 23 33 31 49 8 16 27 38 43 49 15 12 27 27 27 34 0 7 9 17 20 23 11 6 20 17 20 25 0 8 9 19 20 25 11 6 20 17 20 25 0 8 9 19 20 25 11 6 20 17 20 25 0 8 9 19 20 25 11 6 20 17 20 25 0 8 9 19 20 25 11 6 20 17 20 25 0 8 9 19 20 25 11 6 20 17 20 25 0 8 9 19 20 25 11 6 20 17 20 25 0 8 9 19 20 25 11 6 20 17 20 25 0 8 9 19 20 25 11 6 20 17 20 25 0 8 9 19 20 25 11 6 20 17 20 25 0 8 9 19 20 25 11 6 20 17 20 25 0 8 9 19 20 25 11 6 20 17 20 25 0 8 9 19 20 25 11 6 20 17 20 25 0 8 9 19 20 25 11 6 20 17 20 25 0 8 9 19 20 25 11 6 20 17 20 25 0 8 9 19 20 25 11 6 20 17 20 25 0 8 9 19 20 25 11 6 20 17 20 25 0 8 9 19 20 25 11 6 20 17 20 25 0 8 9 19 20 25 11 6 20 17 20 25 0 8 9 19 20 25 11 6 20 17 20 24 0 8 18 32 40 55 22 22 40 45 40 51 0 5 9 14 20 20 11 6 20 17 20 25 0 8 9 19 20 25 11 6 20 17 20 25 0 8 9 19 20 25 11 6 20 17 20 24 0 8 7 16 15 20 8 3 15 11 15 18 0 6 24 35 54 63 59 56 201 134 251 137 17 1 35 5 40 9 14 10 18 11 480 14 452 3 987 13 992 19 2 1 -8 20 -22 40 -14 20 -25 41 -25 46 0 5 -9 14 -20 20 -11 6 -20 17 -20 25 0 8 -9 19 -20 25 -11 6 -20 17 -20 25 0 8 -9 19 -20 25 -11 6 -20 17 -20 25 0 8 -9 19 -20 25 -11 6 -20 17 -20 25 0 8 -9 19 -20 25 -11 6 -20 17 -20 25 0 8 -9 19 -20 25 -11 6 -20 17 -20 25 0 8 -9 19 -20 25 -11 6 -20 17 -20 25 0 8 -9 19 -20 25 -11 6 -20 17 -20 25 0 8 -9 19 -20 25 -11 6 -20 17 -20 25 0 8 -9 19 -20 25 -11 6 -20 17 -20 25 0 8 -9 19 -20 25 -11 6 -20 15 -20 20 0 6 -18 29 -40 51 -22 23 -40 47 -40 55 0 7 -9 18 -20 24 -11 6 -20 17 -20 26 0 8 -6 17 -14 20 -14 5 -146 167 -146 178 0 3 -18 25 -40 47 -22 23 -40 47 -40 55 0 7 -9 18 -20 24 -11 6 -20 15 -20 20 0 6 -18 29 -40 51 -22 23 -40 47 -40 55 0 7 -9 18 -20 24 -11 6 -20 17 -20 25 0 8 -9 19 -20 25 -11 6 -20 17 -20 25 0 8 -9 19 -20 25 -11 6 -20 17 -20 25 0 8 -9 19 -20 25 -11 6 -20 17 -20 25 0 8 -9 19 -20 25 -11 6 -20 17 -20 25 0 8 -9 19 -20 25 -11 6 -20 17 -20 25 0 8 -9 19 -20 25 -11 6 -20 17 -20 25 0 8 -9 19 -20 25 -11 6 -20 17 -20 25 0 8 -9 19 -20 25 -11 6 -20 17 -20 25 0 8 -9 19 -20 25 -11 6 -20 16 -20 22 0 6 -21 29 -47 52 -46 40 -68 47 -125 39z"/>
 <path d="M7629 5946 c-2 -2 -242 -7 -533 -10 -291 -4 -532 -9 -536 -11 -4 -2 -24 -5 -46 -7 -21 -1 -50 -8 -64 -15 -14 -7 -32 -13 -40 -13 -55 0 -190 -105 -253 -197 -16 -23 -35 -44 -43 -47 -8 -3 -14 -12 -14 -20 0 -9 -9 -20 -20 -26 -11 -6 -20 -17 -20 -25 0 -8 -9 -19 -20 -25 -11 -6 -20 -16 -20 -23 0 -7 -18 -32 -40 -55 -22 -22 -40 -46 -40 -51 0 -6 -9 -15 -20 -21 -11 -6 -20 -17 -20 -25 0 -8 -9 -19 -20 -25 -11 -6 -20 -15 -20 -21 0 -13 -87 -121 -106 -132 -8 -4 -14 -14 -14 -22 0 -8 -9 -19 -20 -25 -11 -6 -20 -15 -20 -21 0 -13 -87 -121 -106 -132 -8 -4 -14 -14 -14 -22 0 -8 -9 -19 -20 -25 -11 -6 -20 -17 -20 -25 0 -8 -9 -19 -20 -25 -11 -6 -20 -16 -20 -23 0 -7 -18 -32 -40 -55 -22 -22 -40 -46 -40 -51 0 -6 -9 -15 -20 -21 -11 -6 -20 -17 -20 -25 0 -8 -9 -19 -20 -25 -11 -6 -20 -17 -20 -25 0 -8 -9 -19 -20 -25 -11 -6 -20 -17 -20 -25 0 -8 -9 -19 -20 -25 -11 -6 -20 -17 -20 -25 0 -8 -9 -19 -20 -25 -11 -6 -20 -15 -20 -21 0 -6 -12 -26 -26 -44 -14 -19 -28 -51 -31 -72 -5 -36 -2 -40 36 -65 40 -26 44 -26 233 -29 243 -4 268 -4 638 4 265 6 310 4 340 -9 61 -27 65 -30 75 -58 11 -33 -15 -88 -73 -152 -20 -23 -45 -53 -55 -65 -50 -66 -952 -1195 -962 -1204 -6 -5 -18 -21 -27 -36 -24 -38 -118 -139 -131 -139 -5 0 -25 -11 -43 -25 -18 -14 -37 -25 -43 -25 -6 0 -25 -9 -43 -19 -17 -11 -35 -18 -40 -15 -5 3 -14 1 -21 -4 -29 -23 -159 -33 -450 -32 -428 2 -1060 -11 -1071 -21 -9 -8 -4 -15 376 -491 131 -164 238 -302 238 -308 0 -5 9 -14 20 -20 11 -6 20 -17 20 -25 0 -8 9 -19 20 -25 11 -6 20 -17 20 -25 0 -8 9 -19 20 -25 11 -6 20 -17 20 -25 0 -8 9 -19 20 -25 11 -6 20 -17 20 -26 0 -8 6 -17 14 -20 17 -6 146 -168 146 -183 0 -6 9 -15 20 -21 11 -6 20 -17 20 -25 0 -8 9 -19 20 -25 11 -6 20 -17 20 -25 0 -8 9 -19 20 -25 11 -6 20 -17 20 -25 0 -8 9 -19 20 -25 11 -6 20 -17 20 -26 0 -8 6 -17 14 -20 17 -7 106 -118 106 -133 0 -6 9 -15 20 -21 11 -6 20 -17 20 -25 0 -8 6 -18 14 -22 17 -10 106 -119 106 -130 0 -4 18 -22 39 -40 33 -28 45 -31 89 -29 66 3 66 3 265 250 88 109 167 206 176 216 9 10 25 29 36 44 11 14 29 37 40 50 11 13 29 36 40 50 11 14 29 37 40 50 11 13 29 36 40 50 11 14 29 37 40 50 11 13 29 36 40 50 20 26 55 69 78 96 7 8 20 26 29 40 9 14 29 39 45 57 29 33 56 65 86 105 35 46 112 143 127 159 8 9 23 27 33 40 24 33 148 190 165 209 7 8 43 53 80 100 36 46 72 91 80 100 7 8 43 53 80 100 36 46 74 93 85 105 30 34 42 49 59 75 9 14 29 39 45 57 15 17 37 43 48 57 11 14 29 37 40 50 11 13 29 36 40 50 11 14 29 37 40 50 11 13 29 36 40 50 11 14 29 37 40 50 25 31 54 67 80 100 11 14 29 37 40 50 11 13 29 36 40 50 11 14 29 37 40 50 11 13 29 36 40 50 11 14 29 37 40 50 11 13 29 36 40 51 11 14 28 34 38 43 9 9 17 22 17 29 0 7 9 17 20 23 11 6 20 16 20 22 0 6 10 21 23 33 12 12 31 34 42 49 11 15 28 35 38 44 9 9 17 22 17 29 0 7 9 17 20 23 11 6 20 17 20 25 0 8 9 19 20 25 11 6 20 16 20 22 0 6 10 21 23 34 46 48 57 61 57 70 0 6 18 29 40 52 22 22 40 46 40 51 0 6 9 15 20 21 11 6 20 17 20 25 0 8 9 19 20 25 11 6 20 16 20 23 0 7 18 32 40 55 22 22 40 46 40 51 0 6 9 15 20 21 11 6 20 16 20 22 0 6 10 21 23 33 12 12 31 34 42 49 11 15 28 35 38 44 9 9 17 21 17 27 0 8 36 51 105 126 8 9 15 19 15 24 0 4 10 18 23 30 12 12 30 33 40 46 38 52 112 144 119 149 11 9 55 71 77 110 32 59 33 188 1 220 -11 11 -20 24 -20 30 0 5 -9 14 -20 20 -11 6 -20 17 -20 25 0 8 -9 19 -20 25 -11 6 -20 17 -20 25 0 8 -9 19 -20 25 -11 6 -20 17 -20 25 0 8 -9 19 -20 25 -11 6 -20 17 -20 25 0 8 -9 19 -20 25 -11 6 -20 17 -20 25 0 8 -9 19 -20 25 -11 6 -20 17 -20 25 0 8 -9 19 -20 25 -11 6 -20 17 -20 25 0 8 -9 19 -20 25 -11 6 -20 17 -20 25 0 8 -9 19 -20 25 -11 6 -20 17 -20 25 0 8 -6 18 -14 22 -8 4 -63 69 -122 143 -60 74 -117 143 -129 152 -15 13 -39 17 -101 18 -44 0 -83 -2 -85 -4z"/>
 </g>
<g id="layer105" fill="#e0e0e4" stroke="none">
 <path d="M4997 9342 c-42 -10 -76 -48 -365 -411 -485 -608 -2453 -3069 -2750 -3438 -224 -279 -293 -371 -302 -405 -14 -50 -8 -125 14 -165 8 -15 156 -203 328 -418 l313 -390 631 3 c583 2 638 4 705 21 92 24 152 50 206 90 26 19 247 286 561 679 285 356 525 658 535 672 38 55 8 119 -66 139 -33 10 -183 12 -603 9 -516 -3 -561 -2 -591 14 -17 10 -35 23 -39 29 -12 20 -6 66 13 96 34 54 1136 1428 1186 1480 86 89 226 146 382 157 39 3 295 6 570 7 275 1 569 4 653 7 140 3 153 5 149 21 -6 25 -1402 1767 -1429 1785 -30 19 -66 26 -101 18z"/>
 <path d="M6785 5930 c-261 -6 -273 -7 -349 -33 -101 -36 -150 -65 -207 -124 -91 -94 -1058 -1314 -1064 -1343 -9 -41 10 -69 62 -92 44 -19 63 -20 612 -16 556 3 567 3 601 -18 49 -28 60 -65 34 -112 -29 -54 -1174 -1481 -1219 -1521 -22 -19 -71 -49 -110 -67 -128 -59 -168 -62 -924 -68 -427 -4 -689 -10 -695 -16 -6 -6 -4 -16 5 -27 9 -10 330 -411 714 -892 561 -701 706 -877 734 -888 44 -19 96 -11 129 19 38 34 3340 4165 3358 4201 21 40 22 143 1 183 -18 34 -623 793 -646 811 -17 13 -511 15 -1036 3z"/>
 </g>
<g id="layer106" fill="#ffffff" stroke="none">
 <path d="M5017 9343 c-4 -3 -16 -7 -26 -8 -21 -1 -93 -70 -104 -98 -3 -9 -11 -17 -17 -17 -5 0 -10 -7 -10 -15 0 -8 -13 -24 -30 -37 -16 -12 -30 -28 -30 -35 0 -8 -7 -16 -15 -19 -8 -4 -15 -12 -15 -20 0 -8 -9 -19 -20 -26 -11 -7 -20 -18 -20 -25 0 -7 -9 -18 -20 -25 -11 -7 -20 -18 -20 -25 0 -7 -9 -18 -20 -25 -11 -7 -20 -18 -20 -25 0 -7 -9 -18 -20 -25 -11 -7 -20 -18 -20 -25 0 -7 -9 -18 -20 -25 -11 -7 -20 -18 -20 -25 0 -7 -9 -18 -20 -25 -11 -7 -20 -18 -20 -25 0 -7 -9 -18 -20 -25 -11 -7 -20 -18 -20 -25 0 -7 -9 -18 -20 -25 -11 -7 -20 -18 -20 -25 0 -7 -9 -18 -20 -25 -11 -7 -20 -19 -20 -26 0 -7 -7 -15 -15 -18 -8 -4 -15 -12 -15 -20 0 -8 -9 -19 -20 -26 -11 -7 -20 -18 -20 -25 0 -7 -9 -18 -20 -25 -11 -7 -20 -18 -20 -25 0 -7 -9 -18 -20 -25 -11 -7 -20 -18 -20 -25 0 -7 -9 -18 -20 -25 -11 -7 -20 -18 -20 -25 0 -7 -9 -18 -20 -25 -11 -7 -20 -18 -20 -25 0 -7 -9 -17 -20 -23 -11 -6 -20 -17 -20 -25 0 -8 -9 -20 -20 -27 -11 -7 -20 -18 -20 -25 0 -7 -9 -17 -20 -23 -11 -6 -20 -17 -20 -25 0 -8 -9 -19 -20 -25 -11 -6 -20 -17 -20 -25 0 -8 -9 -19 -20 -25 -11 -6 -20 -17 -20 -25 0 -8 -9 -19 -20 -25 -11 -6 -20 -17 -20 -25 0 -8 -9 -19 -20 -25 -11 -6 -20 -17 -20 -25 0 -8 -9 -19 -20 -25 -11 -6 -20 -17 -20 -25 0 -8 -9 -19 -20 -25 -11 -6 -20 -17 -20 -25 0 -8 -9 -19 -20 -25 -11 -6 -20 -17 -20 -25 0 -8 -9 -19 -20 -25 -11 -6 -20 -17 -20 -25 0 -8 -9 -19 -20 -25 -11 -6 -20 -17 -20 -25 0 -8 -9 -19 -20 -25 -11 -6 -20 -17 -20 -25 0 -8 -9 -19 -20 -25 -11 -6 -20 -17 -20 -25 0 -8 -9 -19 -20 -25 -11 -6 -20 -17 -20 -25 0 -8 -9 -19 -20 -25 -11 -6 -20 -17 -20 -25 0 -8 -9 -19 -20 -25 -11 -6 -20 -17 -20 -25 0 -8 -9 -19 -20 -25 -11 -6 -20 -17 -20 -25 0 -8 -9 -19 -20 -25 -11 -6 -20 -17 -20 -25 0 -8 -9 -19 -20 -25 -11 -6 -20 -17 -20 -25 0 -8 -9 -19 -20 -25 -11 -6 -20 -17 -20 -25 0 -8 -9 -19 -20 -25 -11 -6 -20 -17 -20 -25 0 -8 -9 -19 -20 -25 -11 -6 -20 -17 -20 -25 0 -8 -9 -19 -20 -25 -11 -6 -20 -17 -20 -25 0 -8 -9 -19 -20 -25 -11 -6 -20 -17 -20 -25 0 -8 -9 -19 -20 -25 -11 -6 -20 -17 -20 -25 0 -8 -9 -19 -20 -25 -11 -6 -20 -17 -20 -25 0 -8 -9 -19 -20 -25 -11 -6 -20 -17 -20 -25 0 -8 -9 -19 -20 -25 -11 -6 -20 -17 -20 -25 0 -8 -9 -19 -20 -25 -11 -6 -20 -17 -20 -25 0 -8 -9 -19 -20 -25 -11 -6 -20 -17 -20 -25 0 -8 -9 -19 -20 -25 -11 -6 -20 -17 -20 -25 0 -8 -9 -19 -20 -25 -11 -6 -20 -17 -20 -25 0 -8 -9 -19 -20 -25 -11 -6 -20 -17 -20 -25 0 -8 -9 -19 -20 -25 -11 -6 -20 -17 -20 -25 0 -8 -9 -19 -20 -25 -11 -6 -20 -17 -20 -25 0 -8 -9 -19 -20 -25 -11 -6 -20 -17 -20 -25 0 -8 -9 -19 -20 -25 -11 -6 -20 -17 -20 -25 0 -8 -9 -19 -20 -25 -11 -6 -20 -17 -20 -25 0 -8 -9 -19 -20 -25 -11 -6 -20 -17 -20 -25 0 -8 -9 -19 -20 -25 -11 -6 -20 -17 -20 -25 0 -8 -9 -19 -20 -25 -11 -6 -20 -17 -20 -25 0 -8 -9 -19 -20 -25 -11 -6 -20 -17 -20 -25 0 -8 -9 -19 -20 -25 -11 -6 -20 -17 -20 -25 0 -8 -9 -19 -20 -25 -11 -6 -20 -17 -20 -25 0 -8 -9 -19 -20 -25 -11 -6 -20 -17 -20 -25 0 -8 -9 -19 -20 -25 -11 -6 -20 -17 -20 -25 0 -8 -9 -19 -20 -25 -11 -6 -20 -17 -20 -25 0 -8 -9 -19 -20 -25 -11 -6 -20 -17 -20 -25 0 -8 -9 -19 -20 -25 -11 -6 -20 -17 -20 -25 0 -8 -11 -22 -25 -31 -14 -9 -25 -22 -25 -30 0 -7 -9 -18 -20 -24 -11 -6 -20 -17 -20 -25 0 -8 -9 -19 -20 -25 -11 -6 -20 -17 -20 -25 0 -8 -9 -19 -20 -25 -11 -6 -20 -17 -20 -25 0 -8 -9 -19 -20 -25 -11 -6 -20 -17 -20 -25 0 -8 -9 -19 -20 -25 -11 -6 -20 -17 -20 -25 0 -8 -9 -19 -20 -25 -11 -6 -20 -17 -20 -25 0 -8 -9 -19 -20 -25 -11 -6 -20 -17 -20 -25 0 -8 -9 -19 -20 -25 -11 -6 -20 -17 -20 -25 0 -8 -9 -19 -20 -25 -11 -6 -20 -17 -20 -25 0 -8 -9 -19 -20 -25 -11 -6 -20 -17 -20 -25 0 -8 -9 -20 -20 -27 -11 -7 -20 -18 -20 -25 0 -7 -9 -18 -20 -25 -11 -7 -20 -18 -20 -25 0 -6 -8 -18 -17 -25 -27 -19 -63 -100 -63 -139 0 -53 19 -109 46 -134 13 -12 24 -27 24 -33 0 -6 9 -16 20 -22 11 -6 20 -17 20 -25 0 -8 9 -19 20 -25 11 -6 20 -16 20 -23 0 -7 9 -18 20 -25 11 -7 20 -18 20 -25 0 -7 9 -18 20 -25 11 -7 20 -19 20 -27 0 -8 9 -19 20 -25 11 -6 20 -17 20 -25 0 -8 9 -19 20 -25 11 -6 20 -16 20 -23 0 -7 9 -18 20 -25 11 -7 20 -18 20 -25 0 -7 9 -18 20 -25 11 -7 20 -19 20 -27 0 -8 9 -19 20 -25 11 -6 20 -17 20 -25 0 -8 9 -19 20 -25 11 -6 20 -17 20 -25 0 -8 9 -19 20 -25 11 -6 20 -17 20 -25 0 -8 9 -19 20 -25 11 -6 20 -17 20 -25 0 -8 9 -19 20 -25 11 -6 20 -17 20 -25 0 -8 9 -19 20 -25 11 -6 20 -17 20 -24 0 -7 11 -22 23 -35 l24 -21 439 6 c241 4 522 7 624 8 102 0 191 5 198 9 6 5 17 5 22 2 6 -4 17 -2 24 4 8 7 18 11 22 10 10 -2 27 4 103 37 29 13 59 24 65 24 6 0 17 9 24 20 7 11 18 20 25 20 16 0 57 42 57 58 0 7 9 17 20 24 11 7 20 18 20 25 0 7 9 17 20 23 11 6 20 17 20 25 0 8 9 19 20 25 11 6 20 17 20 25 0 8 9 19 20 25 11 6 20 17 20 25 0 8 9 19 20 25 11 6 20 17 20 25 0 8 9 19 20 25 11 6 20 17 20 25 0 8 9 19 20 25 11 6 20 17 20 25 0 8 9 19 20 25 11 6 20 17 20 25 0 8 9 19 20 25 11 6 20 17 20 25 0 8 9 19 20 25 11 6 20 17 20 25 0 8 9 19 20 25 11 6 20 17 20 25 0 8 9 19 20 25 11 6 20 17 20 25 0 8 9 19 20 25 11 6 20 17 20 25 0 8 9 19 20 25 11 6 20 17 20 25 0 8 9 19 20 25 11 6 20 17 20 25 0 8 9 19 20 25 11 6 20 17 20 25 0 8 9 19 20 25 11 6 20 17 20 25 0 8 9 19 20 25 11 6 20 17 20 25 0 8 9 19 20 25 11 6 20 17 20 25 0 8 9 19 20 25 11 6 20 17 20 25 0 8 9 19 20 25 11 6 20 17 20 25 0 8 9 19 20 25 11 6 20 17 20 25 0 8 9 19 20 25 11 6 20 17 20 25 0 8 9 19 20 25 11 6 20 17 20 25 0 8 9 19 20 25 11 6 20 16 20 23 0 7 9 21 21 31 17 14 20 24 14 54 -8 43 -9 45 -55 61 -19 7 -44 17 -56 23 -13 6 -129 7 -305 4 -248 -6 -795 -9 -809 -5 -3 1 -9 2 -15 3 -5 1 -27 12 -47 25 -29 17 -37 28 -34 44 3 12 5 34 5 48 1 14 12 38 26 53 14 15 25 31 25 36 0 5 9 14 20 20 11 6 20 17 20 25 0 8 9 20 20 27 11 7 20 18 20 25 0 7 9 18 20 25 11 7 20 18 20 25 0 7 9 18 20 25 11 7 20 18 20 25 0 7 9 18 20 25 11 7 20 18 20 25 0 7 9 18 20 25 11 7 20 18 20 25 0 7 9 18 20 25 11 7 20 18 20 25 0 7 9 18 20 25 11 7 20 18 20 25 0 7 9 18 20 25 11 7 20 18 20 25 0 7 9 18 20 25 11 7 20 18 20 25 0 7 9 18 20 25 11 7 20 18 20 25 0 7 9 18 20 25 11 7 20 18 20 25 0 7 9 18 20 25 11 7 20 18 20 25 0 7 9 18 20 25 11 7 20 18 20 25 0 7 9 18 20 25 11 7 20 18 20 25 0 7 9 18 20 25 11 7 20 18 20 25 0 7 9 18 20 25 11 7 20 18 20 25 0 7 9 18 20 25 11 7 20 18 20 25 0 7 9 18 20 25 11 7 20 18 20 25 0 7 9 18 20 25 11 7 20 18 20 25 0 7 9 18 20 25 11 7 20 18 20 25 0 7 9 18 20 25 11 7 20 18 20 25 0 7 9 18 20 25 11 7 20 18 20 25 0 7 9 18 20 25 11 7 20 18 20 25 0 7 9 18 20 25 11 7 20 18 20 25 0 7 9 18 20 25 11 7 20 18 20 25 0 7 9 18 20 25 11 7 20 19 20 26 0 7 7 15 16 19 8 3 19 16 24 29 11 28 105 104 130 104 10 0 23 6 30 14 11 14 129 58 146 55 5 -1 14 0 19 1 38 10 147 12 577 10 346 -2 492 1 501 8 9 8 75 11 200 9 103 -1 187 1 187 4 0 4 -7 12 -15 19 -8 7 -15 18 -15 25 0 7 -7 15 -15 19 -8 3 -15 12 -15 20 0 9 -9 20 -20 26 -11 6 -20 17 -20 25 0 8 -9 19 -20 25 -11 6 -20 17 -20 25 0 8 -9 19 -20 25 -11 6 -20 17 -20 24 0 8 -11 21 -25 30 -14 9 -25 23 -25 30 0 8 -7 16 -15 20 -8 3 -15 12 -15 20 0 7 -11 21 -25 30 -14 9 -25 22 -25 29 0 7 -9 18 -20 25 -11 7 -20 18 -20 25 0 7 -9 18 -20 25 -11 7 -20 18 -20 25 0 7 -9 18 -20 25 -11 7 -20 18 -20 25 0 7 -9 18 -20 25 -11 7 -20 18 -20 25 0 7 -9 18 -20 25 -11 7 -20 18 -20 25 0 7 -9 18 -20 25 -11 7 -20 18 -20 25 0 7 -9 18 -20 25 -11 7 -20 18 -20 26 0 8 -7 16 -15 20 -8 3 -15 12 -15 20 0 7 -11 21 -25 30 -14 9 -25 22 -25 29 0 7 -9 18 -20 25 -11 7 -20 18 -20 25 0 7 -9 18 -20 25 -11 7 -20 18 -20 25 0 7 -9 18 -20 25 -11 7 -20 18 -20 26 0 8 -7 16 -15 20 -8 3 -15 12 -15 20 0 7 -11 21 -25 30 -14 9 -25 23 -25 30 0 8 -7 16 -15 20 -8 3 -15 12 -15 20 0 9 -9 20 -20 26 -11 6 -20 17 -20 25 0 8 -9 19 -20 25 -11 6 -20 17 -20 24 0 8 -11 21 -25 30 -14 9 -25 23 -25 30 0 8 -7 16 -15 20 -8 3 -15 12 -15 20 0 9 -9 20 -20 26 -11 6 -20 17 -20 25 0 8 -9 19 -20 25 -11 6 -20 17 -20 25 0 8 -9 19 -20 25 -11 6 -20 17 -20 25 0 8 -9 19 -20 25 -11 6 -20 17 -20 25 0 8 -9 19 -20 25 -11 6 -20 17 -20 25 0 8 -9 19 -20 25 -11 6 -20 17 -20 25 0 8 -9 19 -20 25 -11 6 -20 17 -20 25 0 8 -9 19 -20 25 -11 6 -20 17 -20 24 0 12 -40 42 -97 74 -26 14 -28 14 -36 5z"/>
 <path d="M7235 5930 c-3 -5 -131 -8 -332 -5 -223 3 -331 1 -340 -7 -7 -5 -20 -7 -29 -4 -9 4 -22 2 -29 -4 -7 -6 -17 -10 -21 -9 -16 2 -57 -14 -139 -54 -80 -40 -155 -100 -155 -124 0 -7 -9 -18 -20 -25 -11 -7 -20 -18 -20 -25 0 -7 -9 -17 -20 -23 -11 -6 -20 -17 -20 -25 0 -8 -9 -19 -20 -25 -11 -6 -20 -17 -20 -25 0 -8 -9 -19 -20 -25 -11 -6 -20 -17 -20 -25 0 -8 -9 -19 -20 -25 -11 -6 -20 -17 -20 -25 0 -8 -9 -19 -20 -25 -11 -6 -20 -17 -20 -25 0 -8 -9 -19 -20 -25 -11 -6 -20 -17 -20 -25 0 -8 -9 -19 -20 -25 -11 -6 -20 -17 -20 -25 0 -8 -9 -19 -20 -25 -11 -6 -20 -17 -20 -25 0 -8 -9 -19 -20 -25 -11 -6 -20 -17 -20 -25 0 -8 -9 -19 -20 -25 -11 -6 -20 -17 -20 -25 0 -8 -9 -19 -20 -25 -11 -6 -20 -17 -20 -25 0 -8 -9 -19 -20 -25 -11 -6 -20 -17 -20 -25 0 -8 -9 -19 -20 -25 -11 -6 -20 -17 -20 -25 0 -8 -9 -19 -20 -25 -11 -6 -20 -17 -20 -25 0 -8 -9 -19 -20 -25 -11 -6 -20 -17 -20 -25 0 -8 -9 -19 -20 -25 -11 -6 -20 -17 -20 -25 0 -8 -9 -19 -20 -25 -11 -6 -20 -17 -20 -25 0 -8 -9 -19 -20 -25 -11 -6 -20 -17 -20 -25 0 -8 -9 -19 -20 -25 -11 -6 -20 -17 -20 -25 0 -8 -9 -19 -20 -25 -11 -6 -20 -17 -20 -25 0 -8 -9 -19 -20 -25 -11 -6 -20 -17 -20 -25 0 -8 -9 -19 -20 -25 -11 -6 -20 -17 -20 -24 0 -8 -11 -21 -24 -29 -12 -9 -31 -32 -40 -51 -9 -20 -21 -36 -26 -36 -4 0 -11 -13 -15 -29 -7 -31 8 -71 26 -71 5 0 27 -8 47 -18 34 -15 71 -17 402 -14 459 3 717 3 752 0 15 -2 33 -9 40 -15 6 -7 20 -13 29 -13 16 0 29 -24 34 -64 3 -25 -35 -95 -57 -107 -10 -5 -18 -16 -18 -24 0 -8 -9 -19 -20 -25 -11 -6 -20 -17 -20 -25 0 -8 -9 -19 -20 -25 -11 -6 -20 -17 -20 -25 0 -8 -9 -19 -20 -25 -11 -6 -20 -17 -20 -25 0 -8 -9 -19 -20 -25 -11 -6 -20 -17 -20 -25 0 -8 -9 -19 -20 -25 -11 -6 -20 -17 -20 -25 0 -8 -9 -19 -20 -25 -11 -6 -20 -17 -20 -25 0 -8 -9 -19 -20 -25 -11 -6 -20 -17 -20 -25 0 -8 -9 -19 -20 -25 -11 -6 -20 -17 -20 -25 0 -8 -9 -19 -20 -25 -11 -6 -20 -17 -20 -25 0 -8 -9 -19 -20 -25 -11 -6 -20 -17 -20 -25 0 -8 -9 -19 -20 -25 -11 -6 -20 -17 -20 -25 0 -8 -9 -19 -20 -25 -11 -6 -20 -17 -20 -25 0 -8 -9 -19 -20 -25 -11 -6 -20 -17 -20 -25 0 -8 -9 -19 -20 -25 -11 -6 -20 -17 -20 -26 0 -8 -7 -17 -15 -20 -8 -4 -15 -12 -15 -20 0 -8 -9 -19 -20 -26 -11 -7 -20 -18 -20 -25 0 -7 -11 -20 -25 -29 -14 -9 -25 -22 -25 -30 0 -7 -9 -18 -20 -24 -11 -6 -20 -17 -20 -26 0 -8 -7 -17 -15 -20 -8 -4 -15 -12 -15 -20 0 -8 -9 -19 -20 -26 -11 -7 -20 -18 -20 -25 0 -7 -11 -20 -25 -29 -14 -9 -25 -22 -25 -30 0 -7 -9 -18 -20 -24 -11 -6 -20 -17 -20 -26 0 -8 -7 -17 -15 -20 -8 -4 -15 -12 -15 -20 0 -8 -9 -19 -20 -26 -11 -7 -20 -18 -20 -25 0 -7 -11 -20 -25 -29 -14 -9 -25 -22 -25 -30 0 -7 -9 -18 -20 -24 -11 -6 -20 -17 -20 -25 0 -8 -9 -19 -20 -25 -11 -6 -20 -15 -20 -20 0 -19 -125 -131 -172 -155 -27 -14 -53 -23 -56 -21 -4 2 -25 -4 -46 -15 -21 -10 -43 -16 -48 -13 -5 3 -15 1 -22 -5 -7 -6 -21 -9 -29 -5 -9 3 -22 2 -29 -3 -7 -4 -200 -6 -428 -5 -275 3 -424 0 -442 -7 -17 -6 -29 -7 -33 -1 -4 7 -13 7 -24 1 -11 -6 -110 -8 -248 -5 -180 4 -233 3 -239 -7 -5 -8 1 -18 14 -27 12 -8 22 -20 22 -26 0 -6 9 -17 20 -24 11 -7 20 -18 20 -25 0 -7 9 -18 20 -25 11 -7 20 -18 20 -25 0 -7 9 -18 20 -25 11 -7 20 -18 20 -25 0 -7 9 -18 20 -25 11 -7 20 -18 20 -25 0 -7 9 -18 20 -25 11 -7 20 -18 20 -25 0 -7 9 -18 20 -25 11 -7 20 -18 20 -25 0 -7 9 -18 20 -25 11 -7 20 -18 20 -25 0 -7 9 -18 20 -25 11 -7 20 -18 20 -25 0 -7 9 -18 20 -25 11 -7 20 -18 20 -25 0 -7 9 -18 20 -25 11 -7 20 -18 20 -25 0 -7 9 -18 20 -25 11 -7 20 -19 20 -27 0 -8 9 -19 20 -25 11 -6 20 -17 20 -25 0 -8 9 -19 20 -25 11 -6 20 -17 20 -25 0 -8 9 -19 20 -25 11 -6 20 -17 20 -25 0 -8 9 -19 20 -25 11 -6 20 -17 20 -25 0 -8 9 -19 20 -25 11 -6 20 -17 20 -25 0 -8 9 -19 20 -25 11 -6 20 -17 20 -25 0 -8 9 -19 20 -25 11 -6 20 -17 20 -25 0 -8 9 -19 20 -25 11 -6 20 -17 20 -25 0 -8 9 -19 20 -25 11 -6 20 -16 20 -23 0 -7 9 -18 20 -25 11 -7 20 -19 20 -27 0 -8 9 -19 20 -25 11 -6 20 -17 20 -25 0 -8 9 -19 20 -25 11 -6 20 -17 20 -25 0 -8 9 -19 20 -25 11 -6 20 -16 20 -23 0 -7 9 -18 20 -25 11 -7 20 -18 20 -25 0 -7 9 -18 20 -25 11 -7 20 -19 20 -27 0 -8 9 -19 20 -25 11 -6 20 -17 20 -25 0 -8 9 -19 20 -25 11 -6 20 -16 20 -23 0 -7 9 -18 20 -25 11 -7 20 -18 20 -25 0 -7 9 -18 20 -25 11 -7 20 -18 20 -25 0 -7 9 -18 20 -25 11 -7 20 -18 20 -25 0 -7 9 -18 20 -25 11 -7 20 -18 20 -25 0 -7 9 -18 20 -25 11 -7 20 -18 20 -26 0 -8 7 -16 15 -20 8 -3 19 -16 24 -30 9 -21 81 -66 108 -66 29 0 133 76 133 97 0 7 9 17 20 23 11 6 20 17 20 25 0 8 9 19 20 25 11 6 20 17 20 25 0 8 9 19 20 25 11 6 20 17 20 25 0 8 9 19 20 25 11 6 20 17 20 25 0 8 9 19 20 25 11 6 20 17 20 25 0 8 9 19 20 25 11 6 20 17 20 25 0 8 9 19 20 25 11 6 20 17 20 25 0 8 9 19 20 25 11 6 20 17 20 25 0 8 9 19 20 25 11 6 20 17 20 25 0 8 9 19 20 25 11 6 20 17 20 25 0 8 9 19 20 25 11 6 20 17 20 25 0 8 9 19 20 25 11 6 20 17 20 25 0 8 9 19 20 25 11 6 20 17 20 25 0 8 9 19 20 25 11 6 20 17 20 25 0 8 9 19 20 25 11 6 20 17 20 25 0 8 9 19 20 25 11 6 20 17 20 25 0 8 9 19 20 25 11 6 20 17 20 25 0 8 9 19 20 25 11 6 20 17 20 25 0 8 9 19 20 25 11 6 20 17 20 25 0 8 9 19 20 25 11 6 20 17 20 25 0 8 9 19 20 25 11 6 20 17 20 25 0 8 9 19 20 25 11 6 20 17 20 25 0 8 9 19 20 25 11 6 20 17 20 25 0 8 9 19 20 25 11 6 20 17 20 25 0 8 9 19 20 25 11 6 20 17 20 25 0 8 9 19 20 25 11 6 20 17 20 25 0 8 9 19 20 25 11 6 20 17 20 25 0 8 9 19 20 25 11 6 20 17 20 25 0 8 9 19 20 25 11 6 20 17 20 25 0 8 9 19 20 25 11 6 20 17 20 25 0 8 9 19 20 25 11 6 20 17 20 25 0 8 9 19 20 25 11 6 20 17 20 25 0 8 9 19 20 25 11 6 20 17 20 26 0 8 7 17 15 20 8 4 15 12 15 20 0 8 9 19 20 26 11 7 20 18 20 25 0 7 11 20 25 29 14 9 25 22 25 30 0 7 9 18 20 24 11 6 20 17 20 26 0 8 7 17 15 20 8 4 15 12 15 20 0 7 11 21 25 30 14 9 25 22 25 30 0 7 9 18 20 24 11 6 20 17 20 25 0 8 9 19 20 25 11 6 20 17 20 25 0 8 9 19 20 25 11 6 20 17 20 25 0 8 9 19 20 25 11 6 20 17 20 25 0 8 9 19 20 25 11 6 20 17 20 25 0 8 9 19 20 25 11 6 20 17 20 25 0 8 9 19 20 25 11 6 20 17 20 25 0 8 9 19 20 25 11 6 20 17 20 25 0 8 9 19 20 25 11 6 20 17 20 25 0 8 9 19 20 25 11 6 20 17 20 25 0 8 9 19 20 25 11 6 20 17 20 25 0 8 9 19 20 25 11 6 20 17 20 25 0 8 9 19 20 25 11 6 20 17 20 25 0 8 9 19 20 25 11 6 20 17 20 25 0 8 9 19 20 25 11 6 20 17 20 25 0 8 9 19 20 25 11 6 20 17 20 25 0 8 9 19 20 25 11 6 20 17 20 25 0 8 9 19 20 25 11 6 20 17 20 26 0 8 7 17 15 20 8 4 15 12 15 20 0 7 11 21 25 30 14 9 25 22 25 30 0 7 9 18 20 24 11 6 20 17 20 26 0 8 7 17 15 20 8 4 15 12 15 20 0 8 9 19 20 26 11 7 20 18 20 25 0 7 9 18 20 25 11 7 20 18 20 25 0 7 9 18 20 25 11 7 20 18 20 25 0 7 9 18 20 25 11 7 20 18 20 25 0 7 9 18 20 25 11 7 20 18 20 25 0 7 9 18 20 25 11 7 20 18 20 25 0 7 9 18 20 25 11 7 20 18 20 25 0 7 9 18 20 25 11 7 20 18 20 25 0 7 9 18 20 25 11 7 20 18 20 25 0 7 9 18 20 25 11 7 20 18 20 25 0 7 11 20 25 29 14 9 25 23 25 30 0 8 7 17 15 20 8 4 15 12 15 20 0 7 11 21 25 30 14 9 25 23 25 30 0 8 7 17 15 20 8 4 15 12 15 20 0 8 9 19 20 26 11 7 20 18 20 25 0 7 9 18 20 25 11 7 20 18 20 25 0 7 11 20 25 29 14 9 25 23 25 30 0 8 7 17 15 20 8 4 15 12 15 20 0 8 9 19 20 26 11 7 20 18 20 25 0 7 11 20 25 29 14 9 25 22 25 29 0 7 9 19 19 26 10 8 31 45 46 82 26 67 26 69 10 117 -9 27 -25 60 -36 74 -10 13 -19 29 -19 35 0 6 -9 15 -20 21 -11 6 -20 16 -20 23 0 7 -9 18 -20 25 -11 7 -20 18 -20 25 0 7 -9 18 -20 25 -11 7 -20 18 -20 25 0 7 -9 18 -20 25 -11 7 -20 19 -20 27 0 8 -9 19 -20 25 -11 6 -20 16 -20 23 0 7 -9 18 -20 25 -11 7 -20 18 -20 25 0 7 -9 18 -20 25 -11 7 -20 18 -20 25 0 7 -9 18 -20 25 -11 7 -20 18 -20 25 0 7 -9 18 -20 25 -11 7 -20 19 -20 27 0 8 -9 19 -20 25 -11 6 -20 17 -20 25 0 8 -9 19 -20 25 -11 6 -20 16 -20 23 0 7 -9 18 -20 25 -11 7 -20 19 -20 27 0 8 -9 19 -20 25 -11 6 -20 17 -20 25 0 8 -9 19 -20 25 -11 6 -20 16 -20 23 0 7 -16 24 -34 40 l-35 27 -275 0 c-164 0 -277 -4 -281 -10z"/>
 </g>

</svg>